<svg xmlns="http://www.w3.org/2000/svg" viewBox="0 0 640 360" role="img" aria-label="Panel de observabilidad">
  <defs>
    <linearGradient id="obs-bg" x1="0" y1="0" x2="1" y2="1">
      <stop offset="0%" stop-color="#0d1024"/><stop offset="100%" stop-color="#05060f"/>
    </linearGradient>
  </defs>
  <rect width="640" height="360" fill="url(#obs-bg)"/>
  <g stroke="#5E6AD2" stroke-opacity="0.07">
    <path d="M0 90h640M0 180h640M0 270h640M160 0v360M320 0v360M480 0v360"/>
  </g>

  <!-- Panel de barras -->
  <rect x="56" y="76" width="240" height="146" rx="10" fill="none" stroke="#5E6AD2" stroke-width="2"/>
  <g fill="#8A93E8">
    <rect x="80" y="160" width="22" height="42" rx="3"/>
    <rect x="112" y="132" width="22" height="70" rx="3"/>
    <rect x="144" y="148" width="22" height="54" rx="3"/>
    <rect x="176" y="108" width="22" height="94" rx="3" fill="#5E6AD2"/>
    <rect x="208" y="140" width="22" height="62" rx="3"/>
    <rect x="240" y="122" width="22" height="80" rx="3"/>
  </g>
  <path d="M72 202h212" stroke="#5E6AD2" stroke-opacity="0.3" stroke-width="1.5"/>

  <!-- Medidor -->
  <rect x="320" y="76" width="264" height="146" rx="10" fill="none" stroke="#5E6AD2" stroke-width="2"/>
  <path d="M380 178 A 72 72 0 0 1 524 178" fill="none" stroke="#5E6AD2" stroke-opacity="0.25" stroke-width="14" stroke-linecap="round"/>
  <path d="M380 178 A 72 72 0 0 1 496 121" fill="none" stroke="#8A93E8" stroke-width="14" stroke-linecap="round"/>
  <circle cx="452" cy="178" r="6" fill="#8A93E8"/>
  <path d="M452 178l42 -40" stroke="#8A93E8" stroke-width="3" stroke-linecap="round"/>
  <text x="452" y="206" font-family="ui-monospace, monospace" font-size="14" fill="#EDEDEF" text-anchor="middle">99.4%</text>

  <text x="56" y="300" font-family="ui-monospace, monospace" font-size="15" letter-spacing="3" fill="#5E6AD2">OBSERVABILIDAD</text>
  <text x="56" y="324" font-family="ui-monospace, monospace" font-size="11" letter-spacing="2" fill="#8A8F98">PROMETHEUS · GRAFANA</text>
</svg>
